<?xml version="1.0" encoding="UTF-8" standalone="no"?>
<!DOCTYPE svg PUBLIC "-//W3C//DTD SVG 20010904//EN" "http://www.w3.org/TR/2001/REC-SVG-20010904/DTD/svg10.dtd">
<svg version="1.0" xmlns="http://www.w3.org/2000/svg" viewBox="0 0 585.000000 590.000000" preserveAspectRatio="xMidYMid meet">
<g transform="translate(0.000000,590.000000) scale(0.100000,-0.100000)" stroke="none" fill="#0090DD">
<path d="M2530 5134 c-680 -80 -1264 -437 -1632 -999 -399 -608 -474 -1370 -202 -2048 243 -605 758 -1084 1383 -1286 172 -56 340 -87 546 -100 881 -59 1730 434 2124 1233 105 213 171 422 208 657 25 159 25 499 -1 659 -151 954 -863 1683 -1816 1861 -92 17 -161 22 -345 24 -126 2 -246 1 -265 -1z m148 -736 l2 -268 185 0 185 0 0 158 c0 177 7 214 53 274 49 63 123 98 217 101 l75 2 3 -267 2 -267 38 -6 c195 -32 332 -103 455 -235 57 -62 147 -208 147 -239 0 -7 -269 -11 -892 -13 l-893 -3 -57 -23 c-75 -30 -147 -96 -189 -174 l-34 -63 0 -470 0 -470 28 -57 c32 -66 102 -140 158 -169 92 -46 139 -50 633 -47 l463 3 48 30 c141 87 163 272 47 385 -27 26 -64 51 -88 58 -28 8 -128 12 -319 12 l-278 0 6 63 c14 170 139 333 305 398 49 20 80 24 217 27 179 4 262 -8 368 -54 281 -123 457 -385 457 -679 0 -332 -226 -621 -555 -710 l-65 -18 0 -255 0 -255 -77 6 c-43 3 -95 12 -115 21 -56 24 -108 75 -134 131 -22 45 -24 64 -24 198 l0 147 -185 0 -185 0 -2 -247 -3 -248 -77 1 c-92 2 -149 26 -203 86 -60 66 -68 96 -73 259 l-4 146 -102 6 c-131 8 -213 29 -311 77 -152 76 -287 213 -360 365 -70 146 -68 130 -72 748 -3 462 -1 572 11 637 17 90 49 175 97 258 44 74 188 217 262 261 114 67 272 110 408 111 l67 0 4 168 c4 191 17 231 89 297 59 53 125 75 219 71 l45 -1 3 -267z"/>
</g>
</svg>